<svg  viewBox="0 0 24 24" fill="none" xmlns="http://www.w3.org/2000/svg">
    <path d="M5 4H9.57143L11.5714 6H19C20.1046 6 21 6.89543 21 8V18C21 19.1046 20.1046 20 19 20H5C3.89543 20 3 19.1046 3 18V6C3 4.89543 3.89543 4 5 4Z" fill="currentColor" fill-opacity="0.1"/>
    <path d="M5 4H9.57143L11.5714 6H19C20.1046 6 21 6.89543 21 8V18C21 19.1046 20.1046 20 19 20H5C3.89543 20 3 19.1046 3 18V6C3 4.89543 3.89543 4 5 4Z" stroke="currentColor" stroke-width="2" stroke-linecap="round" stroke-linejoin="round"/>
    <path d="M7 11C8.5 10 10.5 10 12 11S15.5 12 17 11" stroke="currentColor" stroke-width="1.5" stroke-linecap="round"/>
    <path d="M7 14C8.5 13 10.5 13 12 14S15.5 15 17 14" stroke="currentColor" stroke-width="1.5" stroke-linecap="round"/>
</svg>